<svg width="113" height="100" viewBox="0 0 113 100" fill="none" xmlns="http://www.w3.org/2000/svg">
<path d="M40.6835 40.2V47.24C48.1075 39.3893 53.8248 32.7333 57.8355 27.272C61.9315 21.8107 64.4062 17.928 65.2595 15.624C66.1982 13.32 66.6675 11.016 66.6675 8.712C66.6675 6.32266 65.9422 4.40266 64.4915 2.952L65.0035 1.16C67.6488 1.50133 71.4035 1.672 76.2675 1.672C81.2168 1.672 86.2088 1.33066 91.2435 0.647995L91.7555 3.848C87.9155 5.04267 83.8195 5.93866 79.4675 6.536C78.6995 13.7893 72.4702 23.0053 60.7795 34.184L83.0515 82.056C86.3795 89.224 90.0062 93.704 93.9315 95.496C95.4675 95.496 97.3448 94.9413 99.5635 93.832C101.782 92.7227 103.148 91.6133 103.66 90.504L104.428 90.248C106.732 91.784 109.292 92.9787 112.108 93.832C112.364 94.344 112.492 95.0267 112.492 95.88C112.492 96.8187 111.766 97.672 110.316 98.44C108.95 99.2933 106.988 99.72 104.428 99.72C99.0515 99.72 92.6942 98.2267 85.3555 95.24C78.1022 92.2533 73.0675 89.1813 70.2515 86.024C68.3742 77.7467 66.2835 70.536 63.9795 64.392C61.6755 58.248 58.1768 50.44 53.4835 40.968C48.7048 45.32 44.4382 49.032 40.6835 52.104C40.9395 65.0747 41.4942 74.5467 42.3475 80.52C46.8702 80.9467 51.5635 81.7573 56.4275 82.952L56.0435 86.024C49.7288 85.3413 42.8595 85 35.4355 85C28.0968 85 22.1662 85.3413 17.6435 86.024L17.1315 82.824C20.9715 81.6293 25.0675 80.7333 29.4195 80.136C30.3582 73.1387 30.8275 62.1307 30.8275 47.112V39.56C30.8275 28.3813 30.3582 18.0987 29.4195 8.712H29.2915C19.2222 8.712 12.7795 10.0773 9.9635 12.808C9.36617 14.0027 9.0675 15.88 9.0675 18.44C9.0675 21 9.49417 22.7493 10.3475 23.688L10.2195 24.584C8.08617 25.864 5.95283 27.656 3.8195 29.96C2.7955 29.8747 1.98483 29.448 1.3875 28.68C0.704833 27.912 0.3635 27.016 0.3635 25.992C0.3635 21.8107 2.88083 16.8187 7.9155 11.016C12.9502 5.21333 17.6435 1.544 21.9955 0.00799561C22.6782 0.00799561 25.7502 0.306664 31.2115 0.903999C36.6728 1.416 40.9395 1.672 44.0115 1.672C47.1688 1.672 50.0702 1.416 52.7155 0.903999L53.2275 4.104C49.8995 5.384 46.1022 6.536 41.8355 7.56C41.0675 15.4107 40.6835 26.2907 40.6835 40.2Z" fill="#E0DEDC"/>
</svg>
