<svg width="45" height="40" viewBox="0 0 45 40" fill="none" xmlns="http://www.w3.org/2000/svg">
<path d="M16.35 16.5V19.25C19.25 16.1833 21.4833 13.5833 23.05 11.45C24.65 9.31666 25.6167 7.8 25.95 6.9C26.3167 6 26.5 5.1 26.5 4.2C26.5 3.26667 26.2167 2.51667 25.65 1.95L25.85 1.25C26.8833 1.38333 28.35 1.45 30.25 1.45C32.1833 1.45 34.1333 1.31667 36.1 1.05L36.3 2.3C34.8 2.76667 33.2 3.11667 31.5 3.35C31.2 6.18333 28.7667 9.78333 24.2 14.15L32.9 32.85C34.2 35.65 35.6167 37.4 37.15 38.1C37.75 38.1 38.4833 37.8833 39.35 37.45C40.2167 37.0167 40.75 36.5833 40.95 36.15L41.25 36.05C42.15 36.65 43.15 37.1167 44.25 37.45C44.35 37.65 44.4 37.9167 44.4 38.25C44.4 38.6167 44.1167 38.95 43.55 39.25C43.0167 39.5833 42.25 39.75 41.25 39.75C39.15 39.75 36.6667 39.1667 33.8 38C30.9667 36.8333 29 35.6333 27.9 34.4C27.1667 31.1667 26.35 28.35 25.45 25.95C24.55 23.55 23.1833 20.5 21.35 16.8C19.4833 18.5 17.8167 19.95 16.35 21.15C16.45 26.2167 16.6667 29.9167 17 32.25C18.7667 32.4167 20.6 32.7333 22.5 33.2L22.35 34.4C19.8833 34.1333 17.2 34 14.3 34C11.4333 34 9.11667 34.1333 7.35 34.4L7.15 33.15C8.65 32.6833 10.25 32.3333 11.95 32.1C12.3167 29.3667 12.5 25.0667 12.5 19.2V16.25C12.5 11.8833 12.3167 7.86667 11.95 4.2H11.9C7.96667 4.2 5.45 4.73333 4.35 5.8C4.11667 6.26667 4 7 4 8C4 9 4.16667 9.68333 4.5 10.05L4.45 10.4C3.61667 10.9 2.78333 11.6 1.95 12.5C1.55 12.4667 1.23333 12.3 1 12C0.733333 11.7 0.6 11.35 0.6 10.95C0.6 9.31666 1.58333 7.36666 3.55 5.1C5.51667 2.83333 7.35 1.4 9.05 0.799998C9.31667 0.799998 10.5167 0.916665 12.65 1.15C14.7833 1.35 16.45 1.45 17.65 1.45C18.8833 1.45 20.0167 1.35 21.05 1.15L21.25 2.4C19.95 2.9 18.4667 3.35 16.8 3.75C16.5 6.81667 16.35 11.0667 16.35 16.5Z" fill="#155B86"/>
</svg>
